<?xml version="1.0" standalone="no"?>
<!DOCTYPE svg PUBLIC "-//W3C//DTD SVG 20010904//EN"
 "http://www.w3.org/TR/2001/REC-SVG-20010904/DTD/svg10.dtd">
<svg version="1.0" xmlns="http://www.w3.org/2000/svg"
 width="656.000000pt" height="656.000000pt" viewBox="0 0 656.000000 656.000000"
 preserveAspectRatio="xMidYMid meet">
<metadata>
Created by potrace 1.11, written by Peter Selinger 2001-2013
</metadata>
<g transform="translate(0.000000,656.000000) scale(0.100000,-0.100000)"
fill="#000000" stroke="none">
<path d="M2890 5390 c-10 -14 -18 -28 -19 -33 -2 -11 28 -67 37 -68 73 -10
110 11 108 62 -3 65 -89 92 -126 39z"/>
<path d="M3517 5398 c-28 -15 -58 -88 -36 -88 5 0 8 -3 8 -7 -3 -18 1 -36 7
-30 4 3 13 0 20 -8 36 -36 113 9 114 66 0 27 -32 73 -44 62 -3 -3 -6 -2 -6 4
0 13 -41 14 -63 1z"/>
<path d="M3843 5349 c-18 -5 -33 -14 -33 -19 0 -6 -4 -9 -9 -7 -10 2 -45 -19
-72 -45 -9 -9 -19 -15 -21 -14 -1 1 -15 -11 -30 -26 -15 -15 -25 -28 -23 -28
2 0 -27 -31 -65 -69 -38 -38 -66 -71 -63 -75 4 -3 1 -6 -6 -6 -18 0 -112 -96
-103 -105 4 -3 2 -5 -4 -3 -7 1 -40 -25 -73 -60 l-62 -63 -74 67 c-41 36 -75
65 -75 62 0 -2 -25 20 -56 49 -32 29 -61 50 -67 46 -6 -3 -8 -2 -5 3 3 5 0 15
-8 22 -8 7 -14 10 -14 7 0 -3 -13 8 -30 25 -16 17 -30 28 -30 25 0 -3 -9 3
-19 13 -37 33 -51 43 -51 35 0 -4 -6 2 -14 13 -8 10 -19 19 -24 19 -5 0 -18
10 -28 22 -11 12 -26 23 -34 25 -8 2 -21 9 -28 16 -8 7 -18 10 -23 7 -5 -4 -9
-1 -9 4 0 6 -4 11 -9 11 -5 0 -22 5 -38 12 -70 28 -117 30 -148 6 -14 -11 -23
-23 -20 -28 3 -5 1 -11 -4 -14 -9 -6 -8 -80 2 -143 12 -69 80 -202 114 -222
10 -6 15 -11 11 -11 -7 0 50 -65 135 -153 20 -21 37 -42 37 -47 0 -5 9 -11 20
-15 11 -3 19 -10 17 -14 -1 -5 35 -45 81 -90 45 -44 82 -79 82 -77 0 2 21 -16
47 -40 26 -24 50 -44 55 -44 4 0 18 -9 30 -20 13 -10 27 -19 32 -19 5 0 12 -3
15 -8 12 -17 62 -44 71 -38 6 3 10 2 10 -3 0 -5 6 -9 13 -9 6 -1 26 -3 44 -6
18 -2 35 -2 39 2 3 3 9 6 12 6 21 2 63 22 109 51 54 34 225 194 208 194 -5 0
3 9 18 19 16 10 29 22 30 27 2 9 13 24 61 80 15 19 24 34 20 34 -5 0 -1 5 9
11 9 5 17 14 17 19 0 5 11 21 25 36 13 14 22 30 20 34 -3 4 2 11 11 14 8 3 13
10 10 15 -3 5 1 12 10 15 8 3 13 10 10 15 -3 5 1 12 10 15 9 4 14 9 10 13 -3
4 3 16 15 29 11 12 21 28 23 37 1 8 9 22 19 31 9 10 17 22 17 27 0 19 2 24 14
39 21 24 53 132 49 164 -6 46 -31 86 -61 97 -37 15 -110 18 -149 8z"/>
<path d="M2384 4859 c-15 -16 -24 -29 -20 -29 5 0 4 -6 -3 -13 -22 -27 14
-103 53 -112 40 -9 51 -8 78 3 48 20 72 110 36 133 -7 5 -9 9 -3 9 28 0 -45
34 -77 36 -29 1 -43 -5 -64 -27z"/>
<path d="M4087 4858 c-15 -11 -25 -24 -21 -29 3 -5 1 -9 -5 -9 -5 0 -7 -10 -5
-22 3 -13 6 -28 6 -33 1 -11 30 -42 35 -37 2 1 4 2 6 1 41 -13 94 10 102 44
18 78 -55 131 -118 85z"/>
<path d="M4419 4514 c-5 -15 -6 -36 -3 -48 4 -11 8 -32 10 -46 1 -14 3 -25 4
-25 0 0 4 -22 7 -50 11 -94 6 -232 -12 -345 -5 -29 -13 -82 -20 -125 -2 -16
-7 -41 -10 -55 -3 -14 -7 -38 -10 -55 -2 -16 -9 -45 -14 -64 -6 -19 -9 -36 -7
-38 2 -2 -10 -39 -26 -81 -16 -42 -30 -81 -32 -87 -1 -5 -12 -29 -24 -52 -12
-24 -20 -43 -17 -43 3 0 1 -6 -5 -12 -19 -22 -98 -168 -92 -168 4 0 2 -4 -3
-8 -15 -10 -111 -156 -105 -159 3 -2 -5 -10 -18 -18 -12 -9 -20 -20 -17 -25 3
-4 -2 -11 -11 -14 -8 -3 -12 -10 -9 -16 3 -5 2 -10 -2 -10 -5 0 -27 -24 -48
-52 -22 -29 -44 -56 -50 -60 -6 -5 -6 -8 0 -8 5 0 0 -7 -12 -15 -11 -8 -34
-35 -51 -60 -16 -24 -32 -42 -36 -38 -3 3 -6 -1 -6 -9 0 -9 -7 -19 -16 -22 -9
-4 -14 -9 -10 -13 3 -3 -3 -12 -14 -20 -11 -8 -20 -21 -20 -29 0 -8 -3 -13 -7
-11 -5 3 -14 -1 -21 -9 -7 -8 -11 -14 -9 -14 2 0 -16 -21 -40 -47 -23 -26 -43
-54 -43 -61 0 -7 -4 -10 -10 -7 -5 3 -10 3 -10 -2 0 -4 -14 -23 -30 -42 -17
-18 -30 -38 -30 -43 0 -5 -4 -7 -9 -4 -5 3 -16 -9 -25 -27 -8 -17 -16 -28 -16
-24 0 13 -70 -73 -70 -86 0 -6 -3 -7 -6 -4 -4 4 -22 -14 -41 -38 -28 -37 -87
-86 -70 -58 3 5 -30 44 -74 87 -43 43 -79 82 -79 87 0 5 -4 9 -10 9 -6 0 -19
9 -30 20 -11 11 -17 20 -14 20 3 0 -35 41 -84 90 -49 50 -87 90 -85 90 2 0
-24 27 -57 60 -33 34 -60 65 -60 69 0 4 -11 14 -25 21 -13 7 -22 16 -20 20 3
4 -13 24 -35 44 -22 20 -40 40 -40 44 0 5 -10 18 -22 29 -13 11 -41 43 -63 72
-22 28 -43 51 -48 51 -4 0 -5 5 -2 10 3 6 1 10 -5 10 -6 0 -15 12 -20 26 -6
16 -14 23 -22 18 -7 -4 -10 -3 -5 1 4 5 -1 18 -11 29 -19 21 -32 40 -79 111
-14 22 -30 43 -35 46 -5 3 -9 10 -9 15 0 5 -9 19 -19 32 -11 12 -17 22 -14 22
3 0 -3 14 -13 30 -9 17 -21 30 -26 30 -4 0 -6 4 -3 8 3 5 -2 20 -12 33 -9 13
-17 30 -18 37 -2 7 -8 20 -15 28 -7 9 -15 25 -16 37 -2 12 -8 24 -14 28 -6 3
-10 9 -10 13 1 3 1 7 0 9 0 1 -2 10 -4 20 -2 10 -7 26 -11 35 -9 22 -12 31
-19 67 -3 17 -9 39 -12 50 -10 29 -14 48 -15 65 0 8 -4 20 -8 25 -4 6 -6 18
-5 28 2 9 0 17 -4 17 -4 0 -7 8 -7 18 -1 9 -4 33 -8 52 -4 19 -9 45 -12 58 -2
12 -7 34 -10 50 -9 40 -9 288 0 360 5 43 4 62 -4 62 -6 0 -9 4 -6 9 3 5 0 11
-8 14 -16 6 -50 -26 -39 -36 3 -4 2 -7 -4 -7 -9 0 -14 -10 -23 -48 -1 -4 -6
-12 -10 -17 -5 -6 -11 -23 -14 -38 -2 -15 -7 -30 -10 -35 -14 -24 -20 -171
-11 -282 8 -93 25 -211 32 -223 3 -5 7 -23 9 -40 3 -18 8 -39 11 -47 6 -14 11
-36 17 -67 1 -7 5 -16 9 -19 4 -4 7 -18 7 -31 0 -13 4 -23 8 -23 4 0 8 -10 10
-22 1 -21 40 -117 101 -250 12 -27 26 -48 32 -48 6 0 7 -4 4 -10 -3 -5 -1 -10
6 -10 7 0 10 -3 6 -6 -9 -9 98 -152 176 -235 9 -11 18 -22 20 -26 1 -5 7 -6
12 -5 6 2 7 0 3 -4 -4 -4 6 -23 23 -43 16 -20 47 -56 67 -80 20 -25 54 -62 75
-83 20 -21 34 -38 30 -38 -5 0 13 -20 40 -45 26 -25 47 -48 47 -51 0 -12 28
-33 35 -26 5 4 5 2 2 -4 -4 -7 11 -28 33 -48 22 -20 38 -36 35 -36 -3 0 0 -6
7 -14 7 -8 17 -11 22 -8 5 3 6 1 3 -5 -4 -6 8 -24 26 -40 17 -16 66 -66 108
-111 42 -44 80 -78 85 -74 4 4 4 2 1 -4 -3 -6 8 -24 26 -40 18 -16 51 -50 74
-76 23 -25 44 -44 46 -41 3 2 8 -5 12 -16 3 -11 15 -23 25 -26 11 -3 19 -10
17 -14 -1 -5 11 -21 27 -36 l30 -28 30 35 c17 19 47 54 66 77 19 23 46 55 60
69 14 15 45 51 70 81 25 29 58 67 73 84 16 18 61 70 100 117 39 47 87 103 106
124 20 21 29 35 21 31 -8 -4 2 7 23 25 21 18 36 34 33 37 -2 3 10 18 27 35 18
16 25 27 17 23 -8 -4 0 6 18 22 17 16 32 32 32 37 0 4 6 13 13 20 24 24 180
234 180 243 0 4 8 14 19 21 10 7 16 18 13 23 -4 5 -3 9 2 9 4 0 21 17 37 37
16 20 23 33 15 29 -11 -6 -11 -4 1 6 34 29 86 115 88 142 0 5 4 12 9 15 8 6
74 155 77 176 1 6 5 15 8 21 4 6 9 21 12 35 3 13 17 64 31 113 13 49 22 93 19
97 -2 4 0 10 5 14 5 3 9 13 9 23 0 9 3 33 6 52 16 81 20 133 20 280 0 147 -9
239 -23 250 -3 3 -8 14 -9 25 -2 11 -7 22 -10 25 -4 3 -9 14 -10 25 -2 11 -8
23 -14 26 -5 3 -10 10 -10 15 -1 15 -35 54 -47 54 -6 0 -16 -12 -22 -26z"/>
<path d="M3900 4513 c-36 -8 -69 -15 -75 -17 -5 -2 -23 -6 -40 -11 -16 -4 -52
-19 -79 -31 -28 -13 -54 -24 -58 -24 -5 0 -18 -9 -30 -20 -12 -10 -25 -17 -30
-14 -4 3 -8 0 -8 -5 0 -6 -7 -11 -15 -11 -8 0 -15 -5 -15 -12 0 -6 -3 -8 -6
-5 -6 6 -92 -48 -105 -66 -3 -5 -9 -8 -13 -8 -16 1 -35 -12 -29 -22 3 -5 2 -7
-4 -4 -5 4 -19 -3 -31 -13 -12 -11 -26 -20 -32 -20 -6 0 -9 -4 -6 -8 7 -12
-26 -11 -41 1 -7 5 -13 6 -13 2 0 -4 -7 -2 -15 5 -20 16 -115 61 -115 54 0 -3
-7 2 -16 10 -8 9 -24 16 -35 16 -10 0 -19 5 -19 11 0 5 -4 8 -9 5 -4 -3 -17 1
-27 9 -10 8 -27 15 -36 15 -10 0 -18 5 -18 12 0 6 -3 8 -6 5 -4 -3 -16 -1 -28
6 -11 6 -25 12 -31 12 -5 1 -24 9 -41 18 -17 9 -34 13 -38 10 -3 -4 -6 -1 -6
6 0 7 -6 11 -12 8 -7 -2 -22 1 -33 6 -20 11 -35 16 -70 22 -11 2 -20 4 -20 5
0 5 -49 11 -110 14 -78 3 -145 -9 -157 -27 -4 -7 -8 -9 -8 -5 0 4 -12 -5 -27
-19 -16 -14 -27 -29 -26 -34 2 -5 -1 -9 -6 -9 -11 0 -25 -35 -25 -62 -1 -22
42 -80 53 -73 5 3 12 -2 15 -11 4 -9 9 -14 13 -11 3 4 11 2 18 -3 6 -5 20 -11
31 -13 10 -2 26 -7 34 -10 34 -14 147 -26 285 -32 61 -2 127 -8 148 -14 20 -5
37 -7 37 -4 0 3 7 0 15 -7 9 -7 18 -10 22 -7 3 3 21 0 41 -9 19 -8 37 -12 40
-9 3 3 10 1 16 -4 6 -5 31 -15 56 -22 58 -16 50 -14 85 -28 17 -6 41 -16 55
-21 29 -12 80 -10 98 3 6 5 12 7 12 3 0 -3 12 -1 28 5 15 6 41 13 57 16 17 2
52 11 79 19 27 7 52 11 57 9 4 -3 10 -2 13 3 2 4 20 9 38 10 34 3 73 9 73 12
0 2 48 7 125 14 25 3 45 5 45 6 0 1 9 3 20 5 11 2 27 5 35 8 8 2 30 7 48 11
17 4 32 11 32 15 0 4 6 8 13 8 17 0 67 33 67 45 0 5 4 7 9 4 12 -8 79 94 81
124 4 48 0 69 -16 84 -8 9 -12 16 -8 16 15 0 -48 42 -78 52 -50 16 -156 17
-228 1z"/>
<path d="M4779 4067 c-28 -21 -38 -50 -27 -72 21 -38 62 -52 90 -31 22 16 31
66 15 87 -16 22 -59 30 -78 16z"/>
<path d="M4955 4050 c-8 -9 -12 -20 -8 -23 3 -4 2 -7 -4 -7 -6 0 -9 -9 -6 -20
3 -11 10 -20 15 -20 5 0 7 -4 4 -9 -10 -15 37 -21 64 -8 18 9 25 20 26 44 2
52 -57 80 -91 43z"/>
<path d="M2656 4033 c-3 -3 -18 -7 -61 -16 -6 -2 -26 -12 -46 -24 -50 -31 -73
-85 -70 -165 2 -58 4 -68 13 -68 5 0 6 -4 3 -10 -3 -5 -1 -10 5 -10 6 0 9 -4
5 -9 -8 -14 58 -61 109 -76 64 -19 214 -11 281 15 54 21 78 24 235 23 140 -1
193 -4 355 -19 119 -11 445 -14 445 -3 0 5 4 7 10 4 5 -3 15 3 22 15 7 11 18
20 25 20 7 0 13 7 13 15 0 8 4 15 9 15 5 0 16 17 24 38 15 38 13 92 -5 92 -5
0 -7 4 -4 8 7 11 -3 23 -55 65 -25 20 -49 34 -52 30 -4 -3 -7 -2 -7 4 0 6 -33
21 -72 34 -74 23 -173 29 -262 15 -56 -9 -186 -55 -217 -77 -14 -10 -29 -16
-33 -12 -3 3 -6 1 -6 -6 0 -7 -4 -9 -10 -6 -5 3 -10 2 -10 -3 0 -18 -39 -20
-62 -4 -13 9 -25 16 -28 16 -6 -2 -8 -1 -110 31 -47 14 -94 28 -105 30 -11 2
-20 4 -20 6 0 1 -9 3 -20 4 -11 2 -31 5 -45 8 -78 16 -104 19 -174 21 -42 2
-78 1 -80 -1z"/>
<path d="M1742 3945 c-29 -21 -33 -51 -11 -77 26 -29 55 -32 79 -8 50 50 -10
125 -68 85z"/>
<path d="M1526 3905 c-7 -8 -16 -11 -20 -8 -3 4 -6 -11 -6 -32 0 -21 3 -35 7
-32 3 4 11 -1 18 -9 10 -15 15 -15 40 -3 30 15 40 42 25 70 -13 23 -47 30 -64
14z"/>
<path d="M4844 3873 c-55 -60 33 -137 91 -80 30 31 7 93 -38 101 -22 4 -35 -1
-53 -21z"/>
<path d="M5240 3853 c-8 -3 -22 -7 -30 -10 -21 -8 -28 -10 -44 -12 -8 0 -22
-8 -30 -17 -9 -8 -25 -17 -35 -19 -11 -2 -45 -22 -75 -45 -31 -22 -59 -41 -63
-43 -5 -1 -7 -5 -6 -9 2 -5 0 -7 -5 -5 -10 3 -122 -85 -153 -122 -15 -16 -29
-27 -33 -24 -3 4 -6 -1 -6 -9 0 -9 -8 -22 -17 -29 -17 -13 -17 -12 -4 6 8 11
1 7 -15 -10 -17 -16 -29 -33 -27 -36 1 -3 -9 -12 -22 -19 -13 -7 -22 -16 -20
-20 3 -5 -2 -10 -10 -13 -8 -4 -28 -25 -45 -49 -17 -24 -33 -42 -36 -40 -2 1
-3 0 -1 -2 1 -2 -10 -14 -26 -26 -15 -12 -25 -26 -22 -31 4 -5 -1 -9 -9 -9 -9
0 -16 -5 -16 -11 0 -7 -10 -21 -22 -33 -36 -34 -79 -86 -72 -86 3 0 -4 -9 -17
-20 -13 -10 -21 -19 -17 -20 4 0 -9 -15 -27 -34 -19 -18 -35 -38 -35 -45 0 -6
-4 -11 -9 -11 -5 0 -23 -19 -40 -42 -17 -24 -46 -61 -65 -83 -19 -22 -36 -44
-38 -50 -1 -5 -20 -26 -40 -46 -21 -20 -38 -39 -38 -42 0 -4 -13 -21 -29 -39
-32 -36 -105 -122 -154 -181 -18 -22 -43 -50 -57 -63 -14 -13 -22 -24 -18 -24
4 0 -3 -10 -15 -23 -62 -66 -101 -110 -90 -104 7 5 -12 -18 -42 -49 -30 -32
-52 -61 -49 -66 3 -5 2 -7 -3 -6 -4 2 -9 0 -11 -4 -1 -4 -12 -18 -25 -30 -12
-13 -42 -47 -67 -77 -25 -29 -54 -63 -65 -75 -51 -58 -70 -81 -68 -86 0 -3 -5
-11 -13 -18 -8 -7 -14 -9 -14 -5 0 4 -4 1 -10 -7 -7 -11 -20 -4 -68 40 -33 30
-63 63 -67 73 -3 9 -11 17 -16 17 -6 0 -21 12 -35 28 -75 80 -288 292 -295
292 -4 0 -11 5 -15 12 -5 7 -3 8 7 3 8 -5 -115 121 -273 280 -159 158 -288
292 -288 297 0 5 -3 8 -7 6 -10 -5 -62 49 -55 56 3 4 0 6 -6 6 -13 0 -52 36
-52 48 0 4 -14 16 -30 27 -16 11 -30 26 -30 33 0 6 -3 12 -8 12 -12 0 -72 58
-72 70 0 6 -4 8 -10 5 -5 -3 -10 2 -10 11 0 10 -2 15 -5 12 -7 -6 -75 60 -75
73 0 5 -4 9 -8 9 -4 0 -49 41 -100 91 -51 50 -92 88 -92 84 0 -3 -12 8 -26 25
-15 17 -29 29 -31 26 -3 -2 -13 3 -23 12 -26 25 -131 97 -136 95 -2 -2 -13 6
-24 17 -12 12 -25 18 -30 15 -6 -4 -10 -2 -10 2 0 12 -56 44 -64 36 -3 -3 -6
-1 -6 5 0 7 -8 12 -18 12 -10 0 -23 5 -28 10 -8 8 -15 6 -23 -4 -18 -21 -20
-66 -5 -104 7 -18 14 -36 15 -40 1 -4 4 -15 7 -24 2 -10 8 -18 13 -18 5 0 9
-9 9 -20 0 -10 6 -23 14 -27 8 -4 15 -12 16 -18 3 -18 34 -65 43 -65 4 0 6 -4
3 -8 -3 -5 9 -25 27 -44 18 -19 33 -39 35 -44 2 -5 18 -25 35 -44 18 -19 44
-50 60 -68 15 -19 27 -30 27 -26 0 4 12 -8 26 -27 14 -19 30 -33 35 -32 5 2 9
-1 9 -5 0 -5 7 -17 16 -28 8 -10 12 -13 8 -5 -5 9 -3 12 4 7 7 -4 12 -14 12
-23 0 -9 2 -14 5 -11 3 3 32 -20 63 -51 67 -66 122 -113 122 -106 0 3 18 -13
40 -35 22 -22 40 -37 40 -32 0 4 5 -1 11 -11 6 -9 14 -15 20 -12 5 4 9 -1 9
-9 0 -9 6 -16 14 -16 8 0 16 -3 18 -8 2 -4 39 -36 83 -72 44 -35 86 -71 93
-80 12 -13 12 -13 6 0 -4 8 8 -1 27 -20 40 -41 180 -158 193 -162 5 -2 27 -21
48 -42 21 -22 38 -36 38 -33 0 3 16 -10 35 -30 19 -20 35 -33 35 -30 0 8 15
-5 82 -67 71 -64 149 -131 162 -135 6 -2 19 -15 29 -28 10 -12 25 -23 33 -23
8 0 12 -4 9 -10 -3 -5 -3 -10 2 -10 7 0 24 -14 106 -86 15 -13 27 -22 27 -20
0 3 15 -10 33 -27 55 -56 98 -87 109 -81 6 4 8 2 5 -3 -6 -10 36 -53 102 -106
23 -18 24 -18 47 4 13 12 22 24 20 26 -2 2 18 27 45 54 27 28 49 55 49 61 0 5
3 8 8 6 9 -4 91 80 84 87 -3 3 0 5 6 5 16 0 142 125 142 141 0 7 3 9 6 6 4 -4
110 97 237 223 127 127 234 230 239 230 5 0 7 3 5 8 -2 4 7 17 20 29 13 12 23
20 23 16 0 -3 14 11 30 32 17 21 30 34 30 29 0 -5 8 3 18 19 10 15 22 24 25
20 4 -3 7 1 7 10 0 9 6 16 13 14 6 -1 11 4 10 11 -2 6 4 12 13 12 8 0 13 4 9
9 -3 5 4 13 16 16 11 4 18 9 15 12 -6 7 19 33 32 33 5 0 15 11 22 25 7 13 16
22 20 20 4 -2 13 7 20 20 7 13 17 22 21 19 4 -2 19 11 32 31 13 19 27 32 30
28 4 -3 7 1 7 11 0 9 4 15 9 11 5 -3 12 4 16 15 4 11 9 19 13 17 4 -2 17 7 29
20 12 13 20 23 18 23 -2 0 6 11 18 23 12 13 25 23 28 23 11 -2 57 52 51 58 -3
3 2 6 11 6 9 0 19 5 23 12 5 7 2 9 -7 4 -8 -4 -5 0 5 8 11 9 24 16 29 16 4 0
6 3 4 8 -3 7 39 52 49 51 10 -1 52 50 46 55 -3 3 3 6 13 6 10 0 16 2 13 5 -3
3 16 27 42 53 61 61 150 179 150 198 0 8 4 13 9 9 5 -3 13 5 17 17 4 13 10 25
13 28 10 7 44 65 80 135 27 51 29 61 17 73 -15 15 -51 22 -76 15z"/>
<path d="M1629 3750 c-23 -23 -27 -32 -20 -56 9 -36 65 -72 85 -55 7 6 15 8
18 6 9 -9 35 39 32 58 -5 32 -32 64 -60 70 -21 4 -34 -2 -55 -23z"/>
<path d="M5468 3604 c-16 -8 -28 -17 -28 -20 0 -3 5 -2 11 1 6 4 5 -2 -2 -13
-18 -29 11 -73 46 -70 14 1 25 7 25 12 0 5 3 6 7 2 4 -3 12 4 19 16 10 18 9
28 -2 51 -8 15 -19 25 -24 22 -6 -4 -10 -1 -10 4 0 14 -9 13 -42 -5z"/>
<path d="M3017 3574 c-1 -1 -31 -4 -67 -7 -36 -3 -77 -10 -91 -16 -15 -5 -30
-7 -33 -4 -3 4 -6 1 -6 -5 0 -7 -3 -11 -7 -10 -17 5 -52 -24 -74 -58 -24 -39
-31 -115 -11 -122 7 -2 12 -12 12 -23 0 -10 6 -19 14 -19 8 0 17 -7 20 -16 3
-8 10 -12 16 -9 5 3 10 1 10 -4 0 -6 6 -11 14 -11 8 0 16 -4 18 -9 2 -6 14
-12 28 -14 14 -2 33 -7 43 -12 24 -10 221 -11 272 -1 22 4 51 9 65 11 37 5 69
13 80 20 6 3 10 1 10 -4 0 -6 3 -10 8 -10 4 1 9 0 12 -1 3 -1 12 -3 20 -5 8
-2 25 -6 38 -9 12 -3 32 -8 45 -11 99 -25 247 -25 308 -2 70 27 107 100 88
172 -8 30 -69 108 -69 89 0 -5 -4 -4 -8 1 -13 19 -84 44 -172 62 -84 16 -247
18 -266 2 -6 -5 -14 -6 -17 -3 -3 3 -23 8 -44 10 -21 2 -58 6 -83 9 -52 6
-169 12 -173 9z"/>
<path d="M5297 3484 c-15 -8 -25 -19 -22 -24 4 -6 1 -10 -5 -10 -10 0 -7 -40
5 -60 12 -20 54 -30 79 -20 34 13 46 72 21 100 -10 11 -20 18 -23 15 -3 -3
-10 -1 -16 4 -7 6 -22 4 -39 -5z"/>
<path d="M1061 3394 c-24 -30 -16 -63 19 -81 43 -21 89 24 71 69 -6 13 -10 19
-11 13 0 -5 -4 -4 -8 3 -16 24 -51 22 -71 -4z"/>
<path d="M5470 3388 c0 -5 -5 -6 -10 -3 -6 3 -13 -1 -16 -9 -3 -9 -10 -14 -14
-11 -4 3 -11 -6 -14 -20 -7 -27 8 -63 33 -81 17 -13 62 -8 72 7 3 6 10 10 15
10 5 -1 10 4 10 9 1 6 2 11 4 13 11 14 3 42 -20 65 -27 28 -60 38 -60 20z"/>
<path d="M1224 3285 c-12 -12 -21 -29 -20 -36 5 -27 17 -59 24 -60 48 -6 59
-3 81 18 14 12 22 23 18 23 -4 0 -3 8 2 19 26 48 -62 79 -105 36z"/>
<path d="M1048 3222 c-16 -9 -29 -25 -29 -34 -1 -10 -2 -24 -3 -30 -3 -19 25
-59 35 -52 5 3 9 1 9 -4 0 -4 14 -8 31 -8 44 1 82 49 66 85 -23 56 -63 72
-109 43z"/>
<path d="M5698 3184 c-2 -1 -34 -5 -73 -8 -93 -8 -135 -14 -215 -31 -85 -18
-104 -23 -107 -25 -3 -3 -3 -3 -53 -14 -54 -13 -234 -86 -242 -99 -4 -7 -8 -8
-8 -4 0 5 -15 -1 -33 -12 -19 -11 -37 -18 -40 -14 -4 3 -7 2 -7 -4 0 -6 -13
-16 -30 -22 -16 -5 -30 -15 -30 -22 0 -7 -3 -9 -6 -6 -4 4 -19 -2 -34 -13 -16
-11 -31 -20 -34 -20 -9 0 -134 -93 -171 -127 -16 -15 -31 -26 -33 -25 -3 3
-27 -16 -73 -59 -22 -20 -39 -34 -39 -32 0 3 -16 -11 -36 -31 -20 -20 -40 -36
-46 -36 -5 0 -7 -4 -3 -9 3 -5 -3 -12 -14 -16 -11 -3 -38 -26 -60 -50 -23 -25
-41 -41 -41 -38 0 4 -18 -12 -40 -35 -22 -22 -40 -39 -40 -37 0 3 -8 -3 -18
-12 -11 -10 -17 -22 -14 -27 3 -5 0 -6 -6 -3 -5 4 -22 -7 -36 -24 -14 -17 -26
-28 -26 -24 0 3 -22 -16 -50 -43 -27 -27 -51 -47 -53 -46 -2 2 -9 -6 -16 -19
-7 -12 -35 -40 -61 -62 -26 -22 -45 -43 -43 -47 2 -5 0 -8 -4 -8 -16 0 -73
-52 -67 -62 3 -4 1 -7 -4 -6 -5 2 -98 -86 -207 -194 -108 -109 -209 -208 -225
-222 l-29 -24 -48 47 c-27 25 -72 66 -99 91 -28 25 -66 59 -85 76 -102 91
-150 133 -198 174 -30 25 -63 55 -74 67 -11 13 -25 23 -30 23 -5 0 -18 11 -29
26 -11 14 -22 23 -24 21 -3 -2 -27 18 -54 44 -28 27 -50 46 -50 44 0 -2 -10 6
-23 18 -13 12 -36 31 -52 42 -15 11 -44 35 -64 52 -20 18 -39 33 -42 33 -3 0
-17 10 -31 23 -61 55 -88 77 -88 71 0 -3 -17 11 -37 30 -21 20 -44 36 -52 36
-8 0 -11 3 -8 6 5 6 -60 60 -80 67 -4 1 -20 14 -36 30 -15 15 -34 27 -41 27
-8 0 -17 7 -20 15 -3 9 -22 23 -41 31 -19 8 -35 19 -35 24 0 5 -11 12 -25 16
-14 3 -25 10 -25 16 0 5 -5 6 -10 3 -5 -3 -10 -2 -10 3 0 9 -94 64 -106 62 -4
-1 -10 2 -13 7 -5 8 -75 45 -91 48 -3 1 -27 11 -54 23 -55 25 -194 74 -216 76
-9 1 -21 5 -28 10 -6 4 -12 4 -12 0 0 -3 -7 -1 -15 6 -8 7 -15 10 -15 7 0 -3
-14 -2 -31 3 -18 5 -55 12 -83 15 -28 3 -64 8 -81 12 -65 12 -295 17 -375 8
-19 -2 -50 -5 -67 -6 -18 -2 -33 -6 -33 -10 0 -5 -9 -6 -20 -4 -11 2 -20 -1
-20 -6 0 -6 -4 -7 -10 -4 -5 3 -20 0 -32 -7 -13 -6 -27 -13 -33 -13 -28 -3
-66 -27 -88 -57 -77 -104 -17 -129 228 -93 279 42 414 46 580 19 22 -3 47 -7
55 -8 9 -1 21 -5 28 -10 6 -4 12 -4 12 0 0 3 7 1 15 -6 8 -7 15 -10 15 -6 0
10 285 -95 326 -121 11 -7 24 -10 27 -6 4 3 7 1 7 -5 0 -7 9 -12 20 -12 11 0
20 -4 20 -10 0 -5 7 -10 15 -10 8 0 15 -4 15 -8 0 -5 6 -9 13 -9 8 0 35 -14
60 -32 26 -17 47 -29 47 -26 0 3 6 1 13 -5 29 -25 129 -90 137 -90 6 0 10 -4
10 -10 0 -5 6 -10 14 -10 8 0 16 -7 20 -15 3 -8 10 -15 17 -15 11 0 88 -57
101 -75 5 -6 8 -6 8 0 0 6 5 2 11 -7 5 -10 17 -18 25 -18 8 0 13 -4 10 -9 -6
-9 22 -26 37 -23 4 1 7 -4 7 -12 0 -8 6 -16 13 -19 10 -4 206 -167 277 -231
14 -12 56 -49 95 -81 38 -32 80 -69 93 -82 12 -13 27 -23 32 -23 6 0 10 -7 10
-15 0 -8 4 -15 8 -15 5 0 41 -30 82 -67 40 -38 84 -76 99 -85 14 -10 22 -18
18 -18 -5 0 5 -11 22 -25 16 -14 45 -40 63 -58 19 -18 58 -54 87 -82 l53 -50
24 28 c13 16 24 26 24 23 0 -3 24 21 53 52 28 31 64 67 80 80 15 13 24 29 20
35 -3 7 -3 9 2 5 8 -8 35 15 35 30 0 5 8 16 18 23 16 13 16 13 2 -6 -14 -19
-14 -19 3 -6 9 7 17 20 17 28 0 8 4 12 8 9 5 -3 15 6 22 19 7 13 17 22 22 19
4 -3 8 3 8 12 0 10 3 15 6 12 3 -3 32 23 65 58 32 35 59 62 59 60 0 -2 21 17
48 43 26 25 47 48 47 51 -1 3 9 15 22 27 13 12 23 20 23 18 0 -2 13 8 28 23
15 15 26 30 24 35 -2 4 2 7 9 7 6 0 48 36 93 79 154 151 187 181 197 181 6 0
7 5 4 10 -3 6 -2 10 3 10 4 0 24 14 43 31 19 17 52 45 74 62 66 53 110 91 117
102 5 7 8 7 8 0 0 -6 4 -5 8 1 4 6 23 21 42 33 19 11 31 21 25 21 -5 0 0 6 11
13 47 27 220 136 230 146 7 5 15 7 18 4 3 -4 6 -1 6 5 0 7 3 11 8 10 11 -4 72
26 72 35 0 5 4 6 9 2 5 -3 17 3 27 12 10 10 20 17 23 17 3 -1 16 2 29 7 13 5
28 9 33 9 5 0 9 5 9 11 0 5 5 7 10 4 6 -4 16 -2 23 3 14 11 89 37 100 34 4 -1
7 3 7 9 0 5 5 7 10 4 6 -4 17 -1 25 5 8 7 15 10 15 7 0 -3 15 -1 33 4 101 31
336 43 502 25 39 -5 123 -9 189 -11 114 -3 119 -2 142 20 25 25 31 45 13 45
-5 0 -8 4 -5 8 3 5 -7 20 -22 34 -29 27 -92 63 -92 52 0 -4 -6 -2 -12 3 -14
11 -44 19 -100 28 -36 6 -236 14 -240 9z"/>
<path d="M3207 3154 c-1 -2 -20 -4 -41 -6 -20 -1 -40 -6 -42 -10 -3 -5 -10 -6
-15 -3 -5 4 -9 1 -9 -5 0 -6 -4 -9 -9 -5 -6 3 -14 -3 -20 -12 -6 -10 -11 -14
-11 -9 0 11 -36 -25 -37 -38 -1 -5 -7 -12 -13 -16 -18 -11 -20 -107 -2 -152
28 -70 108 -95 226 -68 40 9 53 7 93 -11 25 -11 58 -23 72 -27 45 -9 113 -6
121 7 4 7 10 12 14 12 20 -2 40 17 62 60 25 51 40 139 23 139 -6 0 -8 4 -5 9
8 12 -22 44 -74 76 -25 16 -45 27 -45 26 0 -1 -7 0 -15 2 -83 24 -259 44 -273
31z"/>
<path d="M4018 1867 c-21 -5 -38 -13 -38 -19 0 -5 -4 -6 -10 -3 -5 3 -10 2
-10 -3 0 -5 -6 -9 -13 -9 -16 0 -127 -73 -127 -84 0 -5 -3 -8 -7 -7 -9 3 -53
-32 -97 -77 -16 -16 -26 -23 -21 -15 9 17 -43 -32 -212 -199 -76 -74 -118
-109 -128 -105 -8 4 -15 10 -15 16 0 5 -4 7 -9 4 -5 -3 -11 1 -15 9 -3 8 -12
15 -20 15 -7 0 -17 7 -20 16 -3 8 -10 13 -14 10 -5 -3 -14 4 -22 14 -8 10 -17
17 -22 14 -4 -3 -8 -1 -8 4 0 5 -16 17 -35 28 -19 10 -35 23 -35 28 0 5 -3 7
-6 4 -3 -3 -17 5 -31 18 -14 13 -29 21 -34 18 -5 -3 -12 2 -15 10 -3 9 -10 16
-16 16 -5 0 -16 7 -25 15 -8 8 -19 13 -24 10 -5 -4 -9 -1 -9 5 0 6 -10 15 -22
20 -13 6 -38 19 -55 30 -18 11 -33 16 -33 12 0 -4 -7 1 -14 11 -8 10 -23 19
-35 20 -12 1 -21 4 -21 8 0 4 -10 10 -22 14 -13 4 -25 8 -28 9 -43 19 -69 28
-85 30 -12 1 -26 6 -33 10 -7 4 -12 3 -12 -2 0 -6 -8 -8 -18 -5 -30 7 -60 -28
-56 -66 4 -36 60 -115 75 -105 5 3 9 1 9 -5 0 -12 150 -116 150 -104 0 4 4 3
8 -3 11 -15 89 -54 96 -47 3 4 6 1 6 -5 0 -7 7 -12 15 -12 8 0 15 -5 15 -12 0
-6 3 -8 7 -5 3 4 12 2 20 -4 7 -6 13 -8 13 -3 0 5 4 3 9 -4 4 -7 14 -15 22
-16 8 -1 41 -15 74 -30 33 -15 65 -29 70 -30 6 -1 28 -10 50 -20 22 -10 47
-19 55 -21 8 -2 16 -4 18 -5 1 -2 5 -3 10 -4 4 -1 18 -8 31 -15 36 -20 93 -21
115 -2 16 13 18 13 11 1 -8 -13 -7 -13 11 0 10 8 28 22 39 31 11 10 23 17 26
16 4 -1 26 10 49 26 23 15 45 27 49 27 5 0 16 9 26 20 10 11 21 17 25 15 4 -3
19 6 34 20 15 13 30 25 34 26 14 3 139 89 165 113 15 14 27 22 27 18 0 -4 7 2
15 12 8 11 15 17 15 13 0 -4 15 8 34 28 19 19 37 35 40 35 3 0 16 11 30 25 14
14 23 25 21 25 -3 0 9 13 25 28 16 16 27 32 23 35 -3 4 -1 7 6 7 7 0 9 5 6 10
-3 6 -1 10 4 10 25 0 6 83 -19 86 -5 1 -11 3 -12 4 -7 7 -47 5 -80 -3z m-568
-461 c0 -2 -8 -10 -17 -17 -16 -13 -17 -12 -4 4 13 16 21 21 21 13z"/>
</g>
</svg>
