<?xml version="1.0" encoding="utf-8"?>
<svg version="1.1" id="Layer_1" xmlns="http://www.w3.org/2000/svg" xmlns:xlink="http://www.w3.org/1999/xlink" x="0px" y="0px"
	 viewBox="0 0 20 20" style="enable-background:new 0 0 20 20;" xml:space="preserve">
<path d="M9.3,5.7c0.3,0.5,0.5,1,0.5,1.6c0,0.7-0.2,1.2-0.5,1.6C9.1,9.1,8.8,9.3,8.5,9.5c0.5,0.2,1,0.5,1.2,0.9
  c0.3,0.4,0.4,1,0.4,1.6c0,0.6-0.2,1.2-0.5,1.7c-0.2,0.3-0.5,0.6-0.8,0.8c-0.3,0.3-0.7,0.4-1.2,0.5c-0.5,0.1-1,0.1-1.5,0.1H1.3V4.5
  h5.2C7.8,4.5,8.7,4.9,9.3,5.7z M3.5,6.4v2.4h2.6c0.5,0,0.8-0.1,1.1-0.3C7.5,8.3,7.6,8,7.6,7.5c0-0.5-0.2-0.8-0.6-1
  C6.7,6.4,6.3,6.4,5.8,6.4H3.5z M3.5,10.5v2.9h2.6c0.5,0,0.8-0.1,1.1-0.2c0.5-0.2,0.7-0.7,0.7-1.3c0-0.6-0.2-0.9-0.7-1.1
  c-0.3-0.1-0.6-0.2-1.1-0.2H3.5z"/>
<path d="M16.6,7.5c0.6,0.2,1,0.6,1.4,1.2c0.3,0.5,0.5,1,0.6,1.6c0.1,0.4,0.1,0.9,0.1,1.6h-5.8c0,0.8,0.3,1.4,0.8,1.7
  c0.3,0.2,0.7,0.3,1.1,0.3c0.5,0,0.9-0.1,1.1-0.4c0.2-0.1,0.3-0.3,0.4-0.5h2.1c-0.1,0.5-0.3,0.9-0.8,1.4c-0.7,0.8-1.7,1.2-3,1.2
  c-1.1,0-2-0.3-2.8-1c-0.8-0.6-1.2-1.7-1.2-3.2c0-1.4,0.4-2.4,1.1-3.2c0.7-0.7,1.7-1.1,2.8-1.1C15.4,7.1,16,7.2,16.6,7.5z
   M13.5,9.3c-0.3,0.3-0.5,0.7-0.6,1.2h3.6c0-0.5-0.2-1-0.6-1.3c-0.3-0.3-0.7-0.4-1.2-0.4C14.2,8.8,13.8,8.9,13.5,9.3z"/>
<rect x="12.4" y="5" class="st0" width="4.5" height="1.4"/>
</svg>
