<?xml version="1.0" encoding="utf-8"?>
<svg version="1.1" id="Layer_1" xmlns="http://www.w3.org/2000/svg" xmlns:xlink="http://www.w3.org/1999/xlink" x="0px" y="0px" viewBox="0 0 20 20" style="enable-background:new 0 0 20 20;" xml:space="preserve">
	<path d="M10,18.7c-4.8,0-8.7-3.9-8.7-8.7c0-4.8,3.9-8.7,8.7-8.7s8.7,3.9,8.7,8.7C18.7,14.8,14.8,18.7,10,18.7z M10,2.5 c-4.1,0-7.5,3.4-7.5,7.5c0,4.1,3.4,7.5,7.5,7.5c4.1,0,7.5-3.4,7.5-7.5C17.5,5.9,14.1,2.5,10,2.5z"/>
	<path d="M13.1,17.3c-1-4.8-2.7-8.5-3.9-10.7C7.8,4.2,6.6,2.9,6.6,2.9l0.9-0.8c0.2,0.2,4.9,5.5,6.8,15L13.1,17.3z"/>
	<path d="M1.9,9.8V8.5c11.4,0,13.4-4.6,13.4-4.7l1.2,0.5C16.4,4.5,14.2,9.8,1.9,9.8z"/>
	<path d="M5.2,16.1l-1.1-0.7c0.1-0.2,2.6-4.1,6.3-5.3c3.5-1.2,7.6,0,7.8,0.1l-0.4,1.2c0,0-3.9-1.1-7.1-0.1 C7.6,12.4,5.2,16.1,5.2,16.1z"/>
</svg>
