<svg version="1.1" xmlns="http://www.w3.org/2000/svg" xmlns:xlink="http://www.w3.org/1999/xlink" x="0px" y="0px"
	 viewBox="-280 385.2 30 22.5" style="enable-background:new -280 385.2 30 22.5;" xml:space="preserve">
	<path d="M-250,385.2c0,7.5,0,15,0,22.5c-10,0-20,0-30,0c0-7.5,0-15,0-22.5C-270,385.2-260,385.2-250,385.2z
		 M-276.3,387.3c0.1,0.2,0.2,0.4,0.3,0.4c3.3,3.3,6.6,6.7,9.9,10c0.9,0.9,1.5,0.8,2.5-0.1c2.4-2.4,4.8-4.9,7.3-7.3c1-1,1.9-1.9,3-3
		C-261.2,387.3-268.7,387.3-276.3,387.3z M-276.5,405.7c7.8,0,15.2,0,22.9,0c-2.3-2.3-4.4-4.5-6.6-6.7c-0.3-0.3-0.6-0.6-0.9-0.9
		c-3.9,3.1-3.9,3.1-7.7,0.1C-271.2,400.7-273.8,403.1-276.5,405.7z M-252.1,389.4c-2.5,2.4-4.9,4.8-7.4,7.2c2.5,2.4,5,4.7,7.4,7
		C-252.1,399-252.1,394.1-252.1,389.4z M-270.4,396.6c-2.6-2.6-5.1-5-7.5-7.4c0,4.8,0,9.8,0,14.4
		C-275.5,401.4-272.9,399-270.4,396.6z"/>
</svg>
