<?xml version="1.0" encoding="utf-8"?>
<svg version="1.1" id="Layer_1" xmlns="http://www.w3.org/2000/svg" xmlns:xlink="http://www.w3.org/1999/xlink" x="0px" y="0px"
	 viewBox="0 0 20 20" style="enable-background:new 0 0 20 20;" xml:space="preserve">
<path d="M17.9,1.3H2.1c-0.4,0-0.8,0.4-0.8,0.8v15.8c0,0.4,0.4,0.8,0.8,0.8h15.8c0.4,0,0.8-0.4,0.8-0.8V2.1
	C18.7,1.7,18.3,1.3,17.9,1.3z M16.1,6.2c-0.5,0-1,0-1.5,0c-0.6,0-0.9,0.3-0.9,0.9c0,0.6,0,1.1,0,1.8c0.8,0,1.6,0,2.4,0
	c0,0.8,0,1.5,0,2.3c-0.8,0-1.6,0-2.4,0c0,2.2,0,4.3,0,6.4c-0.8,0-1.6,0-2.4,0c0-2.1,0-4.2,0-6.4c-0.6,0-1.1,0-1.7,0
	c0-0.8,0-1.5,0-2.3c0.5,0,1,0,1.6,0c0.1-1.6-0.4-3.3,1.3-4.4C13.6,3.8,14.8,4,16.1,4C16.1,4.8,16.1,5.4,16.1,6.2z"/>
</svg>
