<?xml version="1.0" encoding="utf-8"?>
<svg version="1.1" id="Layer_1" xmlns="http://www.w3.org/2000/svg" xmlns:xlink="http://www.w3.org/1999/xlink" x="0px" y="0px"
	 viewBox="0 0 20 20" style="enable-background:new 0 0 20 20;" xml:space="preserve">
<path d="M10,1.3c2.2,0,4.5,0,6.7,0c0.6,0,1,0.2,1.4,0.6c0.4,0.4,0.6,0.9,0.6,1.4c0,4.5,0,9,0,13.5c0,1-0.7,1.8-1.7,2
  c-0.1,0-0.2,0-0.4,0c-1.7,0-3.3,0-5,0c-2.8,0-5.7,0-8.5,0c-0.3,0-0.6-0.1-0.8-0.2c-0.6-0.3-1-0.8-1.2-1.5c0-0.1,0-0.2,0-0.4
  c0-0.9,0-1.8,0-2.7c0-3.6,0-7.2,0-10.7c0-0.3,0.1-0.6,0.2-0.9c0.3-0.6,0.8-1,1.5-1.1c0.1,0,0.2,0,0.4,0C5.5,1.2,7.8,1.3,10,1.3z
   M4.8,8.7c-0.1,0-1.5,0-1.5,0c0,0,0,0.1,0,0.1c0,2.4,0,4.8,0,7.3c0,0,0,0.1,0,0.1c0,0.3,0.2,0.5,0.5,0.6c0.1,0,0.2,0,0.3,0
  c4,0,8,0,12,0c0,0,0,0,0.1,0c0.3,0,0.5-0.2,0.6-0.5c0-0.1,0-0.2,0-0.3c0-2.4,0-4.8,0-7.3c0,0,0,0,0,0c0,0,0,0,0-0.1
  c-0.1,0-1.5,0-1.5,0c0.3,1.1,0.2,2.2-0.2,3.3c-0.4,1.1-1.1,1.9-2,2.6c-1.7,1.2-4,1.2-5.8,0.1c-0.9-0.6-1.6-1.3-2-2.3
  C4.6,11.2,4.5,9.9,4.8,8.7z M10,13.4c1.9,0,3.4-1.5,3.4-3.4c0-1.9-1.5-3.4-3.4-3.4c-1.9,0-3.4,1.5-3.4,3.4
  C6.6,11.9,8.1,13.4,10,13.4z M15,6.6c0.3,0,0.7,0,1,0c0.4,0,0.7-0.3,0.7-0.7c0-0.7,0-1.4,0-2c0-0.4-0.3-0.7-0.7-0.7
  c-0.7,0-1.4,0-2,0c-0.4,0-0.7,0.3-0.7,0.7c0,0.7,0,1.4,0,2c0,0.1,0,0.1,0,0.2c0.1,0.3,0.3,0.5,0.6,0.5C14.4,6.6,14.7,6.6,15,6.6z"
  />
</svg>
