<svg version="1.1" xmlns="http://www.w3.org/2000/svg" xmlns:xlink="http://www.w3.org/1999/xlink" x="0px" y="0px" viewBox="0 0 310 70" style="enable-background:new 0 0 310 70;" xml:space="preserve">
  <path d="M42.1,22.9c0,0.2-0.3,0.8-0.9,0.8c-1.4,0-16.7,21.5-19.1,22.4l-0.1,0c-1.9,0-2.9-1.7-2.8-3.5
    c0-0.8,0.7-2.9,1.7-5.8c-3.3,4.8-6.8,9.3-8.4,9.3c-1.5,0-2.5-1.8-2.4-3.8c0.2-7,6.3-21.6,12.7-21.6c1.9,0,2.9,0.9,2.9,2.7
    c0,0.3-0.1,1.3-0.4,2.4C29.9,14.8,35.9,2.5,38,2.5c0.9,0,2.2,0.8,2.2,1.5c0,0.1-15.1,30.3-16.5,37.5c0,0.4-0.1,0.8-0.1,0.9
    c0,0.2,0.1,0.2,0.2,0.2c0.3,0,15.3-20.4,17.7-20.4C42,22.2,42.1,22.6,42.1,22.9z M22.7,31.7l0-0.1c0.2-1.6,2.8-9.2,0.9-9.2
    C21,22.4,13.1,38.9,13,44.1c0,0.2,0,0.3,0.3,0.3C14.2,44.4,18.8,37.4,22.7,31.7z"/>
  <path d="M55.6,23.3c0,0.2-0.2,0.8-0.9,0.8c-1.5,0-16,22.2-19.2,22.2c-1.7,0-3.3-3.8-3.3-7.6c0-8.2,7.5-17.8,12.4-17.8
    c1.9,0,2.6,1.4,2.6,2.5c0,2.9-4.8,9.9-10.4,11.4c-0.9,2.2-1.4,4.4-1.4,6.4c0,1.2,0,2,0.1,2.6c0.1,0.5,0.2,0.9,0.4,0.9
    c1.7,0,16.6-22.1,19-22.1C55.5,22.5,55.6,22.9,55.6,23.3z M37.6,33.1c5.5-2.4,10.1-10.5,7.8-10.5C44,22.6,40,27.6,37.6,33.1z"/>
  <path d="M69.1,23.4c0,0.2-0.2,0.8-0.9,0.8c-0.9,0-9,5.9-12.6,8.9c0.3,8.7-3.1,13.1-7.6,13.1c-4.4,0-4.3-3.5-4.3-3.9
    c0-3.1,4.5-5.9,7.8-8.3c-0.1-1.2-0.2-2.2-0.2-2.9c0-7.8,4.4-11.9,5.7-11.9c1.3,0,2.3,1.5,2.3,2.6c0,1-4.3,2.9-3.8,9l0,0.4
    c3.8-3.1,11.6-8.6,13-8.6C69,22.7,69.1,23.1,69.1,23.4z M51.6,35.7c-2.8,2-6.5,4.3-6.5,6.7c0,0.9,0.3,2.3,2.6,2.3
    C51.7,44.7,51.8,39.8,51.6,35.7z"/>
  <path d="M81.7,22.9c0,0.2-0.2,0.8-0.9,0.8c-1.5,0-17.6,22.4-19.2,22.4c-0.6,0-1.1-0.1-1.5-0.4c-0.5-0.3-0.9-1-0.8-2.4
    c0.2-6.6,6.8-21.8,8.5-21.8c1.2,0,2.7,1.2,2.7,2.4c-0.1,1.7-6.5,12.6-7.2,18.6c0,0.1,0.1,0.1,0.2,0.1c0.3,0,15.3-20.4,17.7-20.4
    C81.6,22.2,81.8,22.6,81.7,22.9z M69,16.1c0-0.7,0.8-1.3,1.9-1.3c1.2,0,3,1.1,2.9,2.6c0,1.1-0.8,1.4-1.9,1.4
    C70.8,18.8,69,18,69,16.1z"/>
  <path d="M101.2,23.1c0,0.2-0.3,0.8-0.9,0.8c-1,0-9.3,10-14.9,16.6c-5.9,12.8-14.4,27.1-19.7,27.3
    c-1.7,0-2.7-1.1-2.6-2.5c0.1-3.1,8.7-13.3,14.8-18.6c0.3-0.7,2.3-5.7,4.5-11.1c-3.8,5.3-8,10.7-9.7,10.7c-1.5,0-2.5-1.8-2.3-3.8
    c0.5-7,7-21.6,13.4-21.6c1.9,0,2.9,0.9,2.8,2.7c0,0.4-0.3,1.9-0.7,3.5c1.6-4,3-7,3.2-7c1.6,0,3.1,0.9,3.1,1.5c0,2.2-2,8-4.9,14.7
    c4.8-5.7,11.8-13.8,13.4-13.8C101.1,22.4,101.3,22.7,101.2,23.1z M76.4,49.7c-5.7,6.5-14.2,16-10.7,15.9
    C67.5,65.5,72.1,58,76.4,49.7z M83.6,31.6c0.1-1.4,3.2-9.2,1.2-9.2c-2.6,0-11.1,16.5-11.4,21.6c0,0.2,0,0.3,0.3,0.3
    C74.5,44.4,79.5,37.4,83.6,31.6z"/>
  <path d="M124,22.9c0,0.2-0.3,0.8-0.9,0.8c-1.5,0-18,22.4-19.7,22.4c-0.6,0-1.2-0.1-1.5-0.4c-0.5-0.3-0.9-1-0.8-2.4
    c0.3-6.6,8.1-19,8.1-20.3c0-0.1,0-0.2-0.2-0.2c-1.2,0-10.1,10.1-14.4,16.9c-1.3,2.8-2.2,5.1-2.2,5.9c0,0.8-3-0.2-3-0.8
    c0.1-3.8,9-23.6,10.8-23.6c1.1,0,2.5,0.2,2.5,0.9c0,0.6-2.7,6.2-5.4,11.7c4.2-5.9,10.2-13,12.7-13c1.2,0,2.7,1.6,2.6,2.9
    c-0.1,1.6-6.3,12.2-7.4,18.2l0,0.3c0,0.2,0.1,0.2,0.2,0.2c0.3,0,15.6-20.4,18.1-20.4C123.9,22.2,124,22.6,124,22.9z"/>
  <path d="M136.4,23.4c0,0.2-0.2,0.8-0.9,0.8c-0.9,0-9,5.9-12.6,8.9c0.3,8.7-3.1,13.1-7.6,13.1c-4.4,0-4.3-3.5-4.3-3.9
    c0-3.1,4.5-5.9,7.8-8.3c-0.1-1.2-0.2-2.2-0.2-2.9c0-7.8,4.4-11.9,5.7-11.9c1.3,0,2.3,1.5,2.3,2.6c0,1-4.3,2.9-3.8,9l0,0.4
    c3.8-3.1,11.6-8.6,13-8.6C136.3,22.7,136.4,23.1,136.4,23.4z M118.9,35.7c-2.8,2-6.5,4.3-6.5,6.7c0,0.9,0.3,2.3,2.6,2.3
    C119,44.7,119.1,39.8,118.9,35.7z"/>
  <path d="M155.8,23.1c0,0.2-0.2,0.8-0.8,0.8c-1.5,0-16.4,22.2-17.6,22.2c-1.3,0-2.3-0.3-2.3-0.9
    c-0.1-1.9,0.8-5.2,2-8.7c-3.5,5-7.2,9.8-8.9,9.8c-1.5,0-2.2-1.9-2.2-3.9c0-7,6-21.2,12.4-21.2c1.9,0,3,1,3,2.8
    c0,0.4-0.3,2.1-0.7,3.8c1.8-3.7,3.4-6.5,4-6.5c0.8,0,1.9,0.4,1.9,0.9c0,0.5-7.7,17-7.6,19.2c0,0.2,0.1,0.3,0.2,0.3
    c0.2,0,13.3-19.4,15.8-19.4C155.6,22.4,155.7,22.7,155.8,23.1z M138.6,32c0.1-1.4,2.8-9.3,0.9-9.3c-2.6,0-10.5,16.2-10.5,21.5
    c0,0.1,0,0.2,0.1,0.2C130,44.5,134.7,37.6,138.6,32z"/>
  <path d="M176.8,23.6c0,0.2-0.3,0.8-0.9,0.7c-1.5,0-15.6,21.8-17.8,21.8c-1.7,0-2.7-1.1-2.7-5.1c0-7.3,1.4-9.1-1.5-9.3
    c-3,7-5.4,12.9-5.4,14c0,0.8-3.6-0.2-3.6-0.8c0-3.8,16.6-42.7,18.4-42.7c1.1,0,2.6,0.9,2.6,1.6s-5.3,12.4-10,23.2
    c2.4-2.7,6.1-5.9,8.5-5.9c4.9,0,0.4,9.6-6.5,10.5c2.3,1.3,1.2,4.3,1.2,7.9c0,1.3,0,2.7,0.5,2.7c2.2,0,14.2-19.5,16.6-19.4
    C176.6,22.8,176.8,23.2,176.8,23.6z M154.6,30.2l-0.1,0.2c0.4,0,0.7,0,0.9,0c3.9,0,7.8-4.9,7.8-6.6
    C163.1,21.4,155.4,29.5,154.6,30.2z"/>
  <path d="M179,38.3c0,0.2-0.2,0.8-0.9,0.8c-1.5,0-8.1,9.1-9.3,9.1c-1.7,0-3.3-3.8-3.3-7.6c0-8.2,8.5-19.8,13.4-19.8
    c1.9,0,2.6,1.4,2.6,2.5c0,3-4.9,10-10.5,11.5c-1.3,2.9-2.2,5.9-2.2,8.3c0,2.7,0.3,2.8,0.5,2.8c0.3,0,7.1-8.1,9.1-8.1
    C178.8,37.8,179,38,179,38.3z M171.8,33.1c5.5-2.3,10.2-10.5,7.8-10.5C178.4,22.6,174.6,27.6,171.8,33.1z"/>
  <path d="M220.3,23.4c0,0.2-0.2,0.8-0.9,0.8c-0.9,0-9.4,6.8-12.9,10c-0.6,10.1-3.9,14.4-8.3,14.4s-4.3-3.5-4.3-3.9
    c0-3.1,5.1-6.8,8.6-9.7c0-1.6-0.1-3-0.1-3.9c0-1.4,0.1-2.7,0.4-3.8c-2.4,1.6-4.8,3.2-5.9,3.2c-1,0-1.1-1.2,0.1-1.2
    c0.9,0,3.9-2.5,6.6-4.6c1.4-3.7,3.8-5.5,4.6-5.5c1.3,0,2.3,1.5,2.3,2.6c0,1-3.8,2-3.8,9v1.3c3.8-3.4,11.6-9.5,13.1-9.5
    C220.2,22.7,220.3,23.1,220.3,23.4z M202.6,36.8c-3.1,2.6-7.2,5.5-7.2,8c0,0.9,0.3,2.3,2.6,2.3C201.7,47.1,202.5,41.5,202.6,36.8z
     M208.5,23.6"/>
  <path d="M236,16.2c-0.1,0.5-0.3,0.4-0.7,0.4c-0.5,0-5.3-0.3-7.9-0.4l-2.5,0c-4,9.2-9,21-9.7,25.3l-0.1,1
    c0,0.2,0.1,0.2,0.2,0.2c0.3,0,14.6-20.4,17-20.4c0.4,0,0.6,0.4,0.6,0.7c0,0.2-0.2,0.8-0.9,0.8c-1.4,0-16,21.5-18.3,22.4l-0.1,0
    c-1.9,0-3-1.7-3-3.5c0-2.4,4.8-15.9,9.5-26.6c-7.9,0.1-11.1,0.9-11.4,0.8c-0.5,0-1-0.2-0.9-0.6c0-1.5,7.5-1.8,13-1.7
    c3-6.8,6-12.2,7.4-12.2c0.9,0,2.3,0.8,2.3,1.5c0,0-2.2,4.7-4.9,10.8c3.8,0.2,9.5,0.7,9.8,0.8C235.8,15.6,236,15.7,236,16.2z"/>
  <path d="M253.1,23.1c0,0.2-0.2,0.8-0.9,0.8c-1.5,0-17.6,22.2-18.7,22.2c-1.3,0-2.3-0.3-2.3-0.9c0-1.4,0.5-3.6,1.4-6
    c-2.9,3.9-5.9,7.2-7.6,7.2c-1.7,0-3-1.1-3-3.3c0-4.9,8.2-21.7,9.3-21.7c1,0,2.4,0.2,2.4,1.2c0,3.4-8,16.5-8,21.6
    c0,0.1,0.1,0.3,0.4,0.3c0.8,0,4.8-4.8,8.3-9.8c2.8-6.6,6.6-13.3,7.5-13.3c0.8,0,2.2,0.3,2.2,1.3c0,1.6-8.4,16.6-8.4,18.8
    c0,0.2,0,0.3,0.1,0.3c0.2,0,14.3-19.4,16.8-19.4C253,22.4,253.1,22.7,253.1,23.1z"/>
  <path d="M275.1,22.9c0,0.2-0.3,0.8-0.9,0.8c-1.4,0-16.7,21.5-19.1,22.4l-0.1,0c-1.9,0-2.9-1.7-2.8-3.5
    c0-0.8,0.7-2.9,1.7-5.8c-3.3,4.8-6.8,9.3-8.4,9.3c-1.5,0-2.5-1.8-2.4-3.8c0.2-7,6.3-21.6,12.7-21.6c1.9,0,2.9,0.9,2.9,2.7
    c0,0.3-0.1,1.3-0.4,2.4c4.7-11,10.8-23.3,12.9-23.3c0.9,0,2.2,0.8,2.2,1.5c0,0.1-15.1,30.3-16.5,37.5c0,0.4-0.1,0.8-0.1,0.9
    c0,0.2,0.1,0.2,0.2,0.2c0.3,0,15.3-20.4,17.7-20.4C275,22.2,275.1,22.6,275.1,22.9z M255.7,31.7l0-0.1c0.2-1.6,2.8-9.2,0.9-9.2
    c-2.6,0-10.5,16.5-10.7,21.6c0,0.2,0,0.3,0.3,0.3C247.2,44.4,251.8,37.4,255.7,31.7z"/>
  <path d="M287.9,22.9c0,0.2-0.2,0.8-0.9,0.8c-1.5,0-17.6,22.4-19.2,22.4c-0.6,0-1.1-0.1-1.5-0.4
    c-0.5-0.3-0.9-1-0.8-2.4c0.2-6.6,6.8-21.8,8.5-21.8c1.2,0,2.7,1.2,2.7,2.4c-0.1,1.7-6.5,12.6-7.2,18.6c0,0.1,0.1,0.1,0.2,0.1
    c0.3,0,15.3-20.4,17.7-20.4C287.8,22.2,287.9,22.6,287.9,22.9z M275.2,16.1c0-0.7,0.8-1.3,1.9-1.3c1.2,0,3,1.1,2.9,2.6
    c0,1.1-0.8,1.4-1.9,1.4C276.9,18.8,275.1,18,275.2,16.1z"/>
  <path d="M291.2,36.6c-2.7,5.2-6.2,9.7-8.8,9.7c-1.1,0-5-1.2-5-6.8c0-7.4,6.9-17.7,8.8-17.7c1.2,0,2.1,0.2,2.5,0.7
    c1.4-1.6,3-2.4,3.8-2.4c2.1,0,2.8,1.6,2.8,4.3c0,2.6-1.2,6.5-3,10.3c4.3-0.8,6.8-6.3,6.8-8.1c0-0.7,1.1-0.9,1.1,0
    C300,29.7,296.2,36,291.2,36.6z M289.7,36.5c-1.5-0.6-3.5-2.7-3.5-6.6c0-1.2,0.1-2.2,0.3-3.2c-2.3,3.5-5.5,8.7-5.5,13.7
    c0,0.9-0.2,4.4,1.5,4.4C284.5,44.9,287.4,41,289.7,36.5z M289,30.4c0,2.2,0.6,4,1.6,4.3c1.9-4,3.3-8.2,3.3-10.6c0-1.4-0.5-2-0.8-2
    C292.3,22.1,289,26,289,30.4z"/>
</svg>
