<svg version="1.1" id="Layer_1" xmlns="http://www.w3.org/2000/svg" xmlns:xlink="http://www.w3.org/1999/xlink" x="0px" y="0px"
	 viewBox="0 0 20 20" style="enable-background:new 0 0 20 20;" xml:space="preserve">
		<path d="M8.8,13c0.3,0.2,0.5,0.4,0.8,0.5c0.3,0.2,0.6,0.4,1,0.5c1.7,0.4,3.1,0,4.3-1.2c1.8-1.7,2.3-3.9,2.1-6.2
			c-0.1-2.1-1.1-3.7-3-4.7C12.5,1,10.8,0.8,9.1,1c-4,0.4-6.7,3.9-6,7.9c0.2,1.2,0.9,2.1,2.1,2.5c0.3,0.1,0.5,0,0.6-0.3
			c0.2-0.6,0.1-1.1-0.2-1.6C4.9,8.7,4.9,7.8,5,6.9c0.5-2.4,2.8-4.3,5.3-4.3c1.7,0,3.7,1,4,3.3c0.1,0.7,0.1,1.5,0,2.2
			c-0.1,1.2-0.5,2.4-1.4,3.4c-0.7,0.8-1.8,1.1-2.7,0.7C9.8,12,9.5,11.6,9.5,11c0-0.3,0-0.6,0.1-1c0.2-0.7,0.4-1.3,0.5-1.9
			c0.1-0.6,0.3-1.1,0.3-1.7c0.1-0.8-0.4-1.3-1.2-1.5C8.6,4.8,8,5.1,7.6,5.8C6.9,6.9,6.8,8.1,7.2,9.3c0.1,0.2,0.1,0.4,0,0.6
			c-0.2,0.7-0.4,1.5-0.5,2.2c-0.5,1.9-0.9,3.7-0.9,5.7c0,0.5,0.1,0.9,0.1,1.4C7.9,17.5,8.2,15.2,8.8,13z"/>
		<path d="M8.8,13c-0.5,2.2-0.8,4.5-2.8,6.1c0-0.5-0.1-0.9-0.1-1.4c-0.1-1.9,0.4-3.8,0.9-5.7c0.2-0.7,0.4-1.5,0.5-2.2
			c0-0.2,0-0.4,0-0.6C6.8,8.1,6.9,6.9,7.6,5.8C8,5.1,8.6,4.8,9.3,5c0.8,0.2,1.2,0.7,1.2,1.5c-0.1,0.6-0.2,1.1-0.3,1.7
			C10,8.8,9.8,9.4,9.6,10.1c-0.1,0.3-0.1,0.6-0.1,1c0,0.5,0.3,0.9,0.8,1.1c0.9,0.4,2,0.1,2.7-0.7c0.9-0.9,1.3-2.1,1.4-3.4
			c0.1-0.7,0.1-1.5,0-2.2c-0.3-2.3-2.3-3.3-4-3.3C7.9,2.5,5.5,4.4,5,6.9C4.9,7.8,4.9,8.7,5.5,9.5c0.3,0.5,0.4,1,0.2,1.6
			c-0.1,0.3-0.3,0.4-0.6,0.3C3.9,11,3.3,10.1,3.1,8.9C2.4,5,5.1,1.4,9.1,1c1.7-0.2,3.4,0,4.9,0.8c1.9,1,2.9,2.6,3,4.7
			c0.1,2.4-0.4,4.5-2.1,6.2c-1.2,1.2-2.7,1.6-4.3,1.2c-0.3-0.1-0.7-0.3-1-0.5C9.3,13.4,9.1,13.2,8.8,13z"/>
</svg>
