<?xml version="1.0" standalone="no"?>
<!DOCTYPE svg PUBLIC "-//W3C//DTD SVG 20010904//EN"
 "http://www.w3.org/TR/2001/REC-SVG-20010904/DTD/svg10.dtd">
<svg version="1.0" xmlns="http://www.w3.org/2000/svg"
 width="16.000000pt" height="16.000000pt" viewBox="0 0 16.000000 16.000000"
 preserveAspectRatio="xMidYMid meet">
<metadata>
Created by potrace 1.11, written by Peter Selinger 2001-2013
</metadata>
<g transform="translate(0.000000,16.000000) scale(0.001600,-0.001600)"
fill="#000000" stroke="none">
<path d="M1640 8605 c0 -49 2 -55 23 -59 12 -3 141 -14 287 -26 146 -11 289
-23 318 -26 l52 -6 0 -3493 0 -3493 -52 -6 c-29 -3 -172 -15 -318 -26 -146
-12 -275 -23 -287 -26 -21 -4 -23 -10 -23 -59 l0 -55 795 0 795 0 0 3665 0
3665 -795 0 -795 0 0 -55z"/>
<path d="M3970 8615 l0 -45 63 0 c277 -2 806 -22 911 -35 921 -110 1593 -571
1991 -1365 313 -625 451 -1412 423 -2415 -26 -936 -240 -1665 -651 -2214 -102
-137 -339 -371 -477 -473 -432 -318 -929 -504 -1595 -598 -111 -15 -528 -47
-657 -50 -5 0 -8 -20 -8 -45 l0 -45 318 0 c337 0 569 10 797 35 1806 197 2944
1195 3219 2825 48 283 60 439 60 800 1 473 -33 776 -130 1165 -338 1351 -1304
2207 -2754 2439 -312 50 -577 66 -1097 66 l-413 0 0 -45z"/>
</g>
</svg>
